<?xml version="1.0" encoding="UTF-8"?>
<!DOCTYPE svg PUBLIC "-//W3C//DTD SVG 1.1//EN" "http://www.w3.org/Graphics/SVG/1.1/DTD/svg11.dtd">
<!-- Creator: CorelDRAW 2021 (64 Bit) -->
<svg xmlns="http://www.w3.org/2000/svg" xml:space="preserve" width="303.036mm" height="216.253mm" version="1.1" style="shape-rendering:geometricPrecision; text-rendering:geometricPrecision; image-rendering:optimizeQuality; fill-rule:evenodd; clip-rule:evenodd"
viewBox="0 0 30303.6 21625.28"
 xmlns:xlink="http://www.w3.org/1999/xlink"
 xmlns:xodm="http://www.corel.com/coreldraw/odm/2003">
 <defs>
  <style type="text/css">
   <![CDATA[
    .fil0 {fill:#FEFEFE}
    .fil2 {fill:#607E8F}
    .fil3 {fill:#607E8F;fill-rule:nonzero}
    .fil1 {fill:#393B4F;fill-rule:nonzero}
   ]]>
  </style>
 </defs>
 <g id="Camada_x0020_1">
  <metadata id="CorelCorpID_0Corel-Layer"/>
  <path class="fil0" d="M27806.13 18139.68l-84.16 -463.75c-398.49,226.72 -802.12,585.71 -752.31,1137.06 44.66,501.54 516.99,671.59 1066.64,504.98l-10.32 -84.16c-851.93,302.3 -903.46,-851.94 -219.85,-1094.13z"/>
  <path class="fil1" d="M15297.28 8042.21c-102.79,-8.23 -207.6,-7.03 -313.36,4.43 -223.99,24.28 -432.86,92.01 -619.1,193.89 -193.54,105.9 -362.48,248.55 -498.4,417.5 -135.92,168.95 -239.06,364.52 -301.05,576.28 -59.63,203.71 -81.07,422.14 -56.82,645.97 24.27,224 92.01,432.88 193.89,619.12 105.88,193.53 248.54,362.47 417.49,498.4 814.95,655.58 2393.24,415.78 2462.12,-746.6 -6.07,32.44 -16.69,63.32 -32.79,88.46l-2.61 4.09 -2.96 3.85c-44.07,57.33 -118.8,77.27 -182.62,40.44 -21.24,-12.25 -38.12,-29.09 -51.28,-48.6 -19.31,13.02 -39.37,22.05 -59.63,27.49 26.8,110.38 -24.25,228.83 -129.72,283.03 -109.24,56.15 -240.64,24.58 -313.51,-68.87 -16.73,17.2 -36.17,32.15 -58.07,44.1 -30,16.33 -61.62,25.39 -93.04,27.83 10.14,12.27 19.11,25.77 26.97,40.56 0.91,1.6 1.79,3.23 2.66,4.85l0.53 0.98 0.52 0.99c63.76,123.64 14.95,275.58 -108.74,339.16l-3.1 1.53c-31.84,9.73 -64.2,18.37 -97.08,25.89 -96.6,5.66 -192.08,-44.93 -239,-136.53 -1.08,-2.1 -2.12,-4.18 -3.14,-6.29 -6.49,-13.03 -11.73,-26.2 -15.69,-39.52 -20.45,24.83 -48.05,45.01 -82.66,57.85 8.29,22.29 12.1,46.1 9.46,70.81 -3.88,36.36 -20.74,66.59 -45.48,88.11 -94.01,-4.02 -185.98,-17.46 -274.89,-39.46 -9.05,-7.3 -17.51,-14.78 -25.25,-22.3l-1.72 -1.69 -1.68 -1.77c-0.59,-0.64 -1.17,-1.27 -1.77,-1.89 -9.37,-9.85 -18.01,-20.05 -25.62,-30.88 -9.65,0.11 -19.66,-1 -29.83,-3.49 21.99,19.99 44.92,39.25 68.83,57.69 -13.25,-3.45 -26.43,-7.1 -39.54,-10.94 -177.92,-52.07 -342.55,-138.97 -485.03,-253.59 -142.44,-114.61 -262.58,-256.8 -351.57,-419.47 -85.73,-156.7 -142.73,-332.6 -163.19,-521.4 -20.46,-188.95 -2.46,-373.07 47.71,-544.51 52.09,-177.94 139,-342.55 253.61,-485.03 114.61,-142.46 256.79,-262.58 419.47,-351.59 156.69,-85.71 332.58,-142.73 521.39,-163.18 83.86,-9.08 166.91,-10.55 248.43,-4.98 63.55,4.35 65.41,0.61 104.33,8.76l24.06 96.08c2.64,-11.91 6.11,-23.8 10.52,-35.57 50.27,-134.07 199.74,-202.02 333.8,-151.76 54.35,20.39 97.85,57.06 127,102.41l-100.8 -402.45c-76.76,-306.61 -540.29,-190.53 -463.49,116.07l1.44 5.74zm408.88 250.19c-94.33,-35.36 -199.5,12.44 -234.87,106.79 -35.37,94.33 12.45,199.49 106.79,234.87 94.34,35.36 199.5,-12.45 234.86,-106.79 35.37,-94.34 -12.43,-199.5 -106.78,-234.87z"/>
  <path class="fil2" d="M14755.92 9371.37l0.36 -0.07c5.51,-4.91 11.89,-10.46 19.09,-16.67 17.86,-14.84 35.86,-29.54 50.77,-41.29l0.09 -0.21c-24.42,18.5 -47.84,37.95 -70.31,58.24zm761.11 1093.12c30.01,66.59 105.32,93.28 169.03,58.33 65.77,-35.57 92.76,-120.71 59.87,-188.7 -31.81,-66.13 -108.46,-89.14 -171.3,-52.16 -60.48,36.64 -85.94,117.55 -57.6,182.53zm-171.96 -133.89c13.61,23.98 14.26,44.84 10.81,65.24 -1.05,8.88 -3.53,17.79 -6.47,26.35 -12.02,41 -29.08,85.48 8.72,158.25 38.81,74.93 87.26,88.93 130.52,105.56 9.77,3.05 18.94,7.08 27.7,12.04 20.87,10.82 39.65,26.03 54.48,54.57l0 0c0.92,1.53 1.67,2.97 2.5,4.54 36.57,70.88 8.7,158.05 -62.48,194.67 -71.19,36.55 -158.38,8.42 -194.75,-62.64 -0.79,-1.52 -1.52,-2.9 -2.23,-4.47 0,0 0,0 -0.01,0 -14.58,-28.79 -16.06,-52.91 -12.74,-76.06 1.07,-10.05 3.3,-20.09 6.4,-29.63 11.74,-44.96 28.36,-92.31 -9.84,-167.59 -37.47,-72.95 -83.67,-84.99 -123.88,-99.33 -8.9,-2.43 -17.42,-5.77 -25.46,-9.93 -19.01,-8.78 -35.26,-21.85 -47.27,-46.51l0 0c-0.43,-1.44 -1.33,-2.49 -1.76,-3.93 -28.08,-58.93 2.57,-132.84 68.39,-167.33 65.84,-32.85 143.83,-14.6 175.28,42.47 0.9,1.21 1.8,2.4 2.09,3.73zm563.58 -404.58c13.6,23.97 14.26,44.85 10.8,65.24 -1.04,8.88 -3.52,17.79 -6.47,26.34 -12.01,41 -29.07,85.49 8.73,158.26 38.81,74.94 87.26,88.93 130.53,105.56 9.76,3.05 18.93,7.07 27.69,12.04 20.85,10.81 39.64,26.03 54.48,54.57l0 0c0.91,1.52 1.65,2.97 2.5,4.53 36.57,70.87 8.7,158.06 -62.49,194.68 -71.19,36.56 -158.38,8.42 -194.74,-62.63 -0.78,-1.53 -1.53,-2.92 -2.24,-4.48 0,0 0,0 -0.01,0 -14.58,-28.8 -16.05,-52.91 -12.74,-76.06 1.08,-10.06 3.3,-20.09 6.4,-29.63 11.75,-44.97 28.37,-92.31 -9.83,-167.58 -37.48,-72.97 -83.68,-85 -123.89,-99.34 -8.89,-2.42 -17.41,-5.77 -25.45,-9.94 -19.01,-8.77 -35.26,-21.84 -47.27,-46.51l0 0c-0.44,-1.43 -1.33,-2.49 -1.77,-3.93 -28.08,-58.92 2.58,-132.82 68.39,-167.32 65.85,-32.85 143.84,-14.61 175.3,42.48 0.89,1.2 1.78,2.39 2.08,3.72zm468.58 -160.63c10.32,22.59 14.4,40.15 16.15,56.36 0.83,7.01 1.26,14.16 1.36,21.38 0.38,32.63 -2.06,67.41 21.55,131.26 20.7,63.79 38.86,76.66 53.51,91.36 2.97,2.79 5.83,6.61 8.48,10.48 5.92,8.76 11.01,20.76 15.11,42.18l0 0c0.19,1.02 0.41,2.05 0.59,3.07 7.76,51.61 -0.04,114.42 -19.27,144.49 -24.14,31.4 -55.76,14.18 -68.97,-40.82 -0.28,-1.92 -0.58,-2.9 -0.88,-3.86 -6.23,-22.93 -6.64,-42.6 -4.95,-62.18 0.51,-8.43 1.44,-15.92 2.83,-24.38 4.66,-35.99 10.58,-74.52 -11.3,-139.37 -24.8,-65.48 -50.93,-80.49 -76.51,-98.35 -5.91,-3.77 -11.51,-7.56 -17.06,-12.23 -13.48,-11.11 -26.12,-24.95 -38.16,-50.66 -0.42,-0.74 -1.16,-2.28 -1.88,-3.85 -30.41,-61.35 -23.5,-126.78 13.12,-143.9 32.12,-14.17 77.67,20.18 104.64,75.4 0.44,0.9 0.86,1.81 1.64,3.62zm89.43 156.56c15.67,53.61 33.83,80.17 38.21,61.42 0.49,-4.36 -0.59,-13.81 -2.54,-25.27l0.15 -0.24c-8.26,-43.46 -19.33,-86.71 -33.28,-129.53l-0.12 -0.06c-7.5,-20.86 -13.64,-30.99 -16.68,-25.45 -9.21,11 -3.93,65.52 14.26,119.13zm-345.44 255.45c27.17,64.31 90.03,87.56 139.04,53.64 45.22,-32.85 61.97,-107.49 38.97,-168.78 -25.22,-62.63 -84.27,-91.43 -133.39,-61.67 -52.96,30.54 -73.6,110.46 -44.62,176.81zm-1216.71 601.47c36.4,54.37 107.5,84.63 160.5,66.88 56.08,-20.2 73.74,-84.92 37.31,-144.44 -37.05,-62.14 -114,-91.74 -170.12,-66.88 -52.33,23.26 -63.86,87.49 -27.69,144.44zm-162.37 -164.78c13.89,24.74 17.77,43.04 18.91,60.5 0.61,7.21 0.92,14.7 0,20.98 -0.4,31.2 -2.84,61.91 35.98,120.14 39.28,54.89 74.05,72.47 106.76,90.18 6.94,3.25 14.34,7.37 21.46,11.87 16.15,9.48 31.88,21.25 46.91,39.67l0 0c1.4,1.3 2.01,2.11 2.61,2.96 37.82,43.27 32.55,78.62 -7.05,80.01 -34.79,-1.3 -91.28,-32.01 -128.7,-68.37 -0.73,-0.78 -1.44,-1.53 -2.14,-2.29 -15.05,-15.79 -21.81,-26.95 -25.46,-36.88 -1.62,-4.39 -2.29,-8.28 -2.81,-12.34 -3.42,-20.48 -4.03,-43.43 -43.14,-96.72 -38.77,-57.06 -68.51,-75.27 -94.82,-94.55 -5.82,-4.29 -10.81,-7.99 -16.62,-13.55 -12.16,-10.85 -24.04,-24.37 -36.42,-45.89 -1.02,-1.72 -1.5,-2.57 -1.98,-3.44 -29.21,-54.05 -30.54,-111.11 -0.24,-129.01 35.3,-19.82 92.57,12.56 124.74,72.94 0.84,1.5 1.65,2.99 2.01,3.79zm-37.58 273.63l0.26 -0.01c5.24,5.23 9.95,9.48 13.47,11.93 16.44,7.29 4.81,-22.39 -29.14,-65.56 -33.2,-46.02 -73.42,-81.76 -86.97,-81.2 -5.48,-1.31 -1.7,7.6 7.73,21.64l0.01 0.21c29.15,40.24 60.84,77.92 94.64,112.99zm1530.72 -1455.77l-0.06 0.35c8.43,9.46 20.69,23.99 40.88,48.38 34.4,45.35 51.77,66.63 66.03,86.28 2.37,3.49 4.73,6.99 7.08,10.52l0.08 0.03c18.47,28.38 35.69,57.92 51.66,88.55 11.97,24.49 18.25,42.54 14.26,45.54 -10.43,7.14 -44.14,-27.88 -72.35,-79.96 -0.52,-0.9 -1.01,-1.8 -1.49,-2.7l-0.01 0.01c-11.78,-20.36 -18.21,-35.7 -21.98,-48 -2.27,-5.93 -3.87,-11.07 -4.85,-15.43 -7.14,-21.64 -13.83,-41.34 -48.77,-88.53 -36.78,-44.6 -59.88,-64.61 -83.27,-84.14 -4.98,-3.84 -9.92,-7.76 -15.53,-12.46 -12.25,-9.8 -24.95,-20.67 -39.82,-35.46 -0.77,-0.73 -1.52,-1.45 -2.27,-2.2 -28.54,-26.43 -41.7,-42.24 -37.33,-41.09l0.12 -0.11c52.72,38.43 102.21,81.95 147.62,130.42zm-328 -69.06c14.97,19.18 19.39,34.34 19.84,48.69 0.24,6.23 0.27,12.7 -1.32,18.42 -3.16,29.74 -11.06,62.09 29.67,124.7 40.01,65.13 80.04,81.7 115.18,99.64 7.83,3.75 15.21,7.98 22.61,13.28 16.36,10.64 31.89,25.23 45.56,49.96l-0.01 0.01c0.81,1.38 1.62,2.78 2.38,4.19 33.06,62.36 20.08,134.03 -30.85,161.97 -54.77,29.18 -129.34,-0.74 -164.48,-67.77 -0.86,-1.54 -1.69,-3.13 -2.15,-4.22l-0.03 -0.01c-14.48,-26.82 -17.21,-48.63 -15.84,-69.28 0.39,-8.72 1.49,-17.4 3.62,-25.49 6.58,-38.34 16.56,-77.41 -23.91,-144.09 -40.33,-63.64 -83.07,-78.89 -121.99,-95.03 -8.52,-2.97 -17.41,-6.91 -25.36,-11.21 -18.79,-9.37 -36.6,-21.92 -50.94,-43.31 -1.21,-1.23 -1.69,-2.22 -2.9,-3.47 -35.5,-50.47 -17.19,-103.1 37.99,-118.43 52.84,-12.37 122.73,13.18 160.47,58.39 0.56,0.85 1.11,1.73 2.44,3.05l0.02 0.01zm169.07 146.48c35.81,55.06 97.59,87.79 135.05,73.88 32.71,-11.54 29.56,-59.11 -3.96,-106.99 -35.11,-46.06 -88.83,-79.82 -123.55,-75.39 -39.05,7.31 -43.75,56.08 -7.54,108.5zm-558.5 234.67c36.11,66.29 121.3,93.97 188.28,61.12 65.64,-31.36 87.74,-108.11 50.97,-171.28 -36.36,-60.87 -117.08,-87.3 -182.15,-59.47 -66.22,29.62 -92.28,105.3 -57.1,169.63zm-185.47 -162.02c13.6,23.96 14.26,44.83 10.81,65.23 -1.04,8.88 -3.52,17.78 -6.47,26.34 -12.01,41 -29.09,85.49 8.72,158.25 38.81,74.95 87.26,88.94 130.54,105.57 9.74,3.05 18.93,7.07 27.68,12.04 20.86,10.82 39.65,26.03 54.48,54.58l0 0c0.91,1.51 1.66,2.96 2.51,4.52 36.56,70.88 8.69,158.06 -62.49,194.68 -71.19,36.57 -158.37,8.43 -194.75,-62.63 -0.79,-1.53 -1.52,-2.92 -2.24,-4.48 0,0 0,0 0,0 -14.58,-28.79 -16.04,-52.89 -12.72,-76.06 1.06,-10.05 3.28,-20.08 6.37,-29.63 11.75,-44.96 28.37,-92.3 -9.82,-167.58 -37.48,-72.96 -83.68,-85 -123.9,-99.33 -8.89,-2.44 -17.41,-5.78 -25.45,-9.93 -19.01,-8.79 -35.26,-21.86 -47.26,-46.53 -0.44,-1.43 -1.33,-2.49 -1.77,-3.92 -28.09,-58.93 2.57,-132.83 68.38,-167.33 65.85,-32.85 143.85,-14.6 175.31,42.47 0.89,1.2 1.78,2.4 2.07,3.74zm-603.7 345.19c9.05,24.12 8.91,45.85 5.58,66.61 -1.11,8.92 -3.1,18.44 -5.63,27.09 -9.55,41.02 -22.05,84.61 6.24,155.1 30.73,71.65 68.35,86.23 103.25,102.55 7.84,2.96 15.52,7.12 22.98,12.48 17.46,10.29 33.59,25.19 46.95,52.54l-0.02 0.01c0.82,1.59 1.61,3.17 2.17,4.22 34.22,68.01 15.06,146 -40.59,173.58 -52.43,25.21 -118.25,-5.88 -149.72,-68.97 -0.69,-1.46 -1.35,-2.91 -2.01,-4.38l0 0c-12.16,-25.49 -14.99,-46.58 -14.32,-66.82 0.22,-8.33 1.11,-16.8 2.59,-25.35 5.9,-39 15.61,-81.87 -14.05,-152.26 -27.19,-69.53 -58.12,-81.96 -84.22,-95.87 -5.53,-2.89 -10.84,-5.8 -15.73,-10.49 -11.4,-8.74 -21.17,-21.15 -28.06,-44.51 -0.38,-0.96 -0.78,-1.91 -1.05,-3.77 -14.97,-56.08 5.14,-128.66 46,-164.33 44.61,-35.89 98.12,-20.06 118.51,38.16 0.31,1.73 0.84,2.7 1.13,4.41zm143.46 161.51c29.99,66.59 105.31,93.29 169.02,58.32 65.76,-35.56 92.77,-120.69 59.87,-188.68 -31.8,-66.14 -108.46,-89.15 -171.31,-52.17 -60.48,36.64 -85.93,117.56 -57.58,182.53zm-391.03 273.88c19.65,56.09 56.55,86.31 85.08,66.4 33.21,-22.4 42.39,-92.48 18.63,-152.75 -21.66,-60.81 -64.1,-84.45 -92.82,-56.97 -23.87,25.66 -27.75,88.99 -10.89,143.32zm-58.48 -144.98c3.45,20.68 4.84,37.28 5.67,53.96 0.5,7.3 0.76,13.58 0.92,19.89 1.94,30.36 4.36,60.8 19.36,116.56 18.39,56.75 31.37,74.47 45.24,92.65 3.07,3.28 6.4,7.53 9.98,12.78 7.98,10.11 16.82,24.17 26.52,45.49 0.44,0.92 1.29,2.79 1.71,3.71 25.88,53.04 34.37,102.02 21.01,106.01 -6.38,2.41 -23.35,-23.86 -40.81,-58.34 -9.36,-19.53 -18,-39.18 -26.04,-58.97l-0.12 -0.23 -0.1 -0.23 -0.07 -0.22 -0.08 -0.24 -0.11 -0.23c-1.26,-3.14 -2.49,-6.29 -3.71,-9.43 -2.24,-5.95 -4.04,-10.88 -5.79,-15.89 -7.62,-24.17 -14.03,-49.79 -31.33,-105.08 -9.69,-36.7 -14.85,-56.1 -17.84,-69.5l-0.23 -0.1c-11.86,-62.77 -17.91,-125.97 -18.27,-188.81l0.19 -0.04c1.87,-8.44 8.02,11.48 13.42,53.15 0.16,1.04 0.32,2.07 0.48,3.11zm1389.08 -1060.57c4.85,2.11 14.39,6.76 34.35,16.52 40.26,23.44 72.02,37.02 101.31,51.04 5.67,2.72 12.21,6.07 17.71,9.08 14.71,8.06 29,16.86 43.98,28.51 0.83,0.64 1.67,1.29 2.48,1.95 37.54,32.1 41.53,58.8 6.45,60.01 -39.98,3.87 -105.13,-24.67 -142.49,-63.53 -0.73,-0.76 -1.46,-1.52 -2.21,-2.3l0.02 0.01c-14.27,-14.17 -19.63,-24.36 -20.55,-32.53 -1.69,-3.84 -1.5,-6.91 -1.38,-9.93 0.72,-12.51 2.83,-23.18 -36.71,-48.17 -38.9,-19.51 -71.24,-28.99 -100.71,-37.01 -7.18,-1.77 -13.29,-3.33 -19.44,-4.9 -14.34,-3.5 -28.7,-6.97 -41.01,-10.14 -1.02,-0.21 -1,-0.23 -2.05,-0.44 -2.06,-0.44 -5.17,-1.05 -7.25,-1.44l-0.01 -0.02c56.97,9.86 113,24.35 167.51,43.29zm-288.41 35.18c30.79,32.11 102.6,49.49 156.81,37.31 51.05,-9.42 61.77,-39.7 27.95,-66.07 -32.97,-21.82 -96.82,-35.47 -144.02,-31.71 -50.72,6.67 -70.8,32.99 -40.74,60.47zm-146.84 -59.19c8.77,6.91 9.31,13.66 5.83,20.88 -0.75,3.23 -2.46,6.57 -5.16,9.92 -11.29,16.87 -26.61,36.94 3.5,70.95 31.07,39.82 72.58,47.43 109.81,57.26 8.55,1.89 16.2,4.37 23.74,7.46 18.36,6.84 35.34,16.59 48.44,34.72l0 0c0.71,0.94 1.44,1.91 2.15,2.87 35.02,48.02 12.63,109.19 -52.36,135.24 -65.49,28.13 -145.67,7.4 -177.07,-44.65 -0.93,-1.01 -1.15,-2.16 -2.08,-3.18 -12.13,-19.92 -12.15,-36.69 -8.65,-52.55 1.23,-6.73 3.35,-13.33 6.37,-19.71 12.2,-29.08 28.06,-58.3 -2.66,-99.19 -27.48,-35.41 -65.07,-38.35 -97.61,-41.78 -7.09,-0.36 -13.37,-1.25 -19.73,-2.35 -14.82,-2.08 -27.25,-5.83 -34.04,-14.75 -1.13,-0.2 -1.27,-0.69 -1.43,-1.19 -16.04,-17.72 14.34,-42.7 67.3,-58.73 51.77,-13.1 109.46,-15.04 131.52,-2.17 1.04,0.29 1.09,0.65 2.13,0.95zm-524.22 227.91c3.28,10.74 -0.9,23.02 -7.86,36.27 -2.81,5.84 -5.74,11.45 -9.6,17.44 -16.14,28.44 -35.65,60.7 -22.86,103.71 15.36,48.82 48.34,52.95 79.08,60 6.95,1.27 13.54,3.39 19.73,6.31 15.48,5.86 28.54,16.2 37.68,37.68l-0.01 0c0.29,1.35 1.1,2.19 1.39,3.54 24.5,55.41 -5.78,133.16 -66.7,169.98 -58.67,36.96 -121.44,19.43 -140.46,-36.32 -0.37,-1.15 -0.71,-2.3 -1.07,-3.42l-0.02 -0.01c-7.11,-21.23 -5.15,-40.7 -0.06,-59.6 1.91,-7.95 4.34,-15.61 7.78,-23.65 13.68,-35.98 31.64,-74.18 17.36,-122.65 -10.12,-44.32 -35.37,-43.56 -55.66,-44.24 -4.32,0.23 -8.02,-0.31 -11.07,-1.58 -7.9,-1.41 -13.75,-5 -13.6,-16.95 0.37,-1.01 0.08,-1.27 0.48,-2.28 2.34,-25.45 37.53,-71.2 78.35,-105.65 43.09,-33.03 81.88,-43.8 86.95,-20.43 0.32,0.41 -0.16,1.45 0.17,1.85zm97.44 69.55c18.51,42.03 84,52.02 145.98,19.1 63.5,-31.86 94.33,-91.52 70.41,-130.93 -21.37,-35.06 -84.48,-38.12 -141.84,-9.57 -56.29,30.27 -90.19,83.42 -74.55,121.4zm-431.82 344.16c1.77,42.86 32.66,51.82 70.09,15.85 41.51,-36.93 69.17,-105.4 60.98,-149.16 -4.84,-40.46 -37.98,-39.51 -72.97,-2.21 -31.06,37.08 -56.68,95.99 -58.1,135.52zm-7.25 -72.24c-5.01,12.79 -10.11,25.54 -15.63,39.24 -2.3,5.88 -4.99,12.75 -7.34,18.62 -11.01,29.63 -22.14,61.44 -28.58,103.41 -2.67,46.74 7.29,51.25 17.65,58.96 2.78,0.65 5.15,3.28 7.54,5.9 6.15,5.52 11.29,15.83 14.33,36.64 0.19,1.04 0.39,2.08 0.6,3.12 9.92,52.98 -4.79,122.53 -31.25,152.78 -21.48,27.81 -40.95,7.98 -45.19,-41.21 -0.06,-1.05 -0.11,-2.11 -0.15,-3.16 -0.75,-18.95 0.3,-34.65 2.32,-51.29 0.91,-7.27 1.83,-13.49 3.06,-20.73 5.67,-31.97 13.16,-65.69 17.28,-111.06 3.89,-22.84 5.66,-33.31 6.77,-38.51 16.27,-55.01 37.01,-108.69 61.99,-160.45l0.01 0.01c-0.87,1.91 -1.74,3.84 -2.59,5.79 -0.42,0.95 -0.85,1.93 -0.82,1.94zm642.63 -557.18l0.23 0.06c18.24,-5.28 40.67,-11.34 63.15,-17.2 8.22,-2 16.43,-3.94 23.65,-5.55l0.24 -0.25c-29.23,6.37 -58.35,13.98 -87.27,22.94zm-138.51 53.92c8.85,-3.51 22.16,-8.59 34.76,-12.77 5.05,-1.61 10.13,-3.1 14.31,-4.05 10.4,-2.29 18.15,-2.63 21.78,0.94l0.01 0.02c1.07,-0.15 1.18,0.12 1.27,0.37 11.55,12.73 -21.73,46.82 -76.02,73.23 -54.33,28.91 -102.32,36.2 -106.7,19.8 -0.16,-0.21 -0.3,-0.46 0.43,-1.25 -1.64,-4.53 4.09,-11.19 12.05,-18.27 3.22,-2.8 6.51,-5.5 10.75,-8.64 11.16,-8.01 23.53,-16.06 31.57,-21.12 7.62,-4.15 15.29,-8.23 23.03,-12.21 10.87,-5.59 21.79,-10.88 32.76,-16.05z"/>
  <path class="fil3" d="M7680.46 13568.28l33.66 0 0 289.28 178.29 0 0 29.11 -211.95 0 0 -318.39zm678.12 233.33l-177.39 0 -38.19 85.06 -35.04 0 145.55 -318.39 33.2 0 145.57 318.39 -35.49 0 -38.21 -85.06zm-12.29 -27.28l-76.4 -171.03 -76.42 171.03 152.82 0zm548.95 -51.86c20.92,4.55 37.07,13.58 48.44,27.07 11.37,13.49 17.06,30.86 17.06,52.07 0,27.3 -10.08,48.3 -30.25,63 -20.16,14.71 -49.96,22.06 -89.38,22.06l-146.44 0 0 -318.39 137.36 0c35.48,0 62.99,7.12 82.54,21.38 19.56,14.25 29.34,34.42 29.34,60.49 0,17.59 -4.31,32.52 -12.96,44.8 -8.64,12.29 -20.54,21.46 -35.71,27.52zm-166.93 -126.44l0 115.53 101.43 0c25.79,0 45.64,-4.93 59.58,-14.79 13.95,-9.84 20.92,-24.17 20.92,-42.97 0,-18.81 -6.97,-33.13 -20.92,-42.99 -13.94,-9.86 -33.79,-14.78 -59.58,-14.78l-101.43 0zm112.36 262.9c28.49,0 50.02,-4.85 64.58,-14.56 14.55,-9.7 21.84,-24.86 21.84,-45.48 0,-39.72 -28.82,-59.59 -86.42,-59.59l-112.36 0 0 119.63 112.36 0zm545.75 30.48c-31.52,0 -60.11,-7.06 -85.74,-21.16 -25.61,-14.1 -45.63,-33.43 -60.02,-57.99 -14.41,-24.56 -21.62,-52.16 -21.62,-82.78 0,-30.63 7.21,-58.22 21.62,-82.78 14.39,-24.57 34.41,-43.89 60.02,-57.99 25.63,-14.1 54.22,-21.15 85.74,-21.15 31.55,0 59.97,6.97 85.29,20.92 25.32,13.95 45.26,33.27 59.81,57.99 14.55,24.71 21.83,52.38 21.83,83.01 0,30.62 -7.28,58.29 -21.83,83.01 -14.55,24.71 -34.49,44.04 -59.81,57.99 -25.32,13.95 -53.74,20.93 -85.29,20.93zm0 -30.02c25.16,0 47.93,-5.69 68.23,-17.06 20.31,-11.37 36.23,-27.14 47.76,-47.31 11.51,-20.16 17.29,-42.67 17.29,-67.54 0,-24.87 -5.78,-47.38 -17.29,-67.55 -11.53,-20.16 -27.45,-35.92 -47.76,-47.31 -20.3,-11.37 -43.07,-17.04 -68.23,-17.04 -25.16,0 -47.97,5.67 -68.46,17.04 -20.46,11.39 -36.53,27.15 -48.2,47.31 -11.68,20.17 -17.52,42.68 -17.52,67.55 0,24.87 5.84,47.38 17.52,67.54 11.67,20.17 27.74,35.94 48.2,47.31 20.49,11.37 43.3,17.06 68.46,17.06zm669.48 27.28l-72.77 -102.33c-8.2,0.9 -16.69,1.36 -25.47,1.36l-85.52 0 0 100.97 -33.66 0 0 -318.39 119.18 0c40.63,0 72.46,9.7 95.51,29.11 23.04,19.41 34.57,46.09 34.57,80.06 0,24.86 -6.29,45.86 -18.87,63 -12.6,17.12 -30.57,29.48 -53.91,37.06l77.78 109.16 -36.84 0zm-99.15 -129.62c31.53,0 55.64,-6.98 72.32,-20.92 16.67,-13.95 25,-33.52 25,-58.68 0,-25.78 -8.33,-45.57 -25,-59.36 -16.68,-13.8 -40.79,-20.7 -72.32,-20.7l-84.61 0 0 159.66 84.61 0zm619.89 44.56l-177.39 0 -38.2 85.06 -35.02 0 145.55 -318.39 33.2 0 145.55 318.39 -35.47 0 -38.22 -85.06zm-12.28 -27.28l-76.42 -171.03 -76.4 171.03 152.82 0zm394.3 -176.94l-111.89 0 0 -29.11 257.45 0 0 29.11 -111.91 0 0 289.28 -33.65 0 0 -289.28zm543.49 292.02c-31.54,0 -60.11,-7.06 -85.74,-21.16 -25.63,-14.1 -45.65,-33.43 -60.04,-57.99 -14.4,-24.56 -21.6,-52.16 -21.6,-82.78 0,-30.63 7.2,-58.22 21.6,-82.78 14.39,-24.57 34.41,-43.89 60.04,-57.99 25.63,-14.1 54.2,-21.15 85.74,-21.15 31.53,0 59.96,6.97 85.29,20.92 25.32,13.95 45.24,33.27 59.81,57.99 14.54,24.71 21.83,52.38 21.83,83.01 0,30.62 -7.29,58.29 -21.83,83.01 -14.57,24.71 -34.49,44.04 -59.81,57.99 -25.33,13.95 -53.76,20.93 -85.29,20.93zm0 -30.02c25.16,0 47.92,-5.69 68.23,-17.06 20.31,-11.37 36.23,-27.14 47.74,-47.31 11.53,-20.16 17.29,-42.67 17.29,-67.54 0,-24.87 -5.76,-47.38 -17.29,-67.55 -11.51,-20.16 -27.43,-35.92 -47.74,-47.31 -20.31,-11.37 -43.07,-17.04 -68.23,-17.04 -25.18,0 -47.99,5.67 -68.46,17.04 -20.47,11.39 -36.54,27.15 -48.22,47.31 -11.67,20.17 -17.49,42.68 -17.49,67.55 0,24.87 5.82,47.38 17.49,67.54 11.68,20.17 27.75,35.94 48.22,47.31 20.47,11.37 43.28,17.06 68.46,17.06zm32.74 -373.43l43.23 0 -73.71 56.4 -31.82 0 62.3 -56.4zm636.74 400.71l-72.79 -102.33c-8.18,0.9 -16.68,1.36 -25.47,1.36l-85.51 0 0 100.97 -33.65 0 0 -318.39 119.16 0c40.64,0 72.47,9.7 95.53,29.11 23.04,19.41 34.56,46.09 34.56,80.06 0,24.86 -6.29,45.86 -18.87,63 -12.59,17.12 -30.55,29.48 -53.9,37.06l77.78 109.16 -36.84 0zm-99.17 -129.62c31.55,0 55.64,-6.98 72.33,-20.92 16.68,-13.95 25,-33.52 25,-58.68 0,-25.78 -8.32,-45.57 -25,-59.36 -16.69,-13.8 -40.78,-20.7 -72.33,-20.7l-84.6 0 0 159.66 84.6 0zm420.23 -188.77l33.65 0 0 318.39 -33.65 0 0 -318.39zm486.18 321.13c-31.54,0 -60.12,-7.06 -85.74,-21.16 -25.63,-14.1 -45.65,-33.43 -60.05,-57.99 -14.4,-24.56 -21.6,-52.16 -21.6,-82.78 0,-30.63 7.2,-58.22 21.6,-82.78 14.4,-24.57 34.42,-43.89 60.05,-57.99 25.62,-14.1 54.2,-21.15 85.74,-21.15 31.53,0 59.95,6.97 85.28,20.92 25.32,13.95 45.24,33.27 59.81,57.99 14.56,24.71 21.84,52.38 21.84,83.01 0,30.62 -7.28,58.29 -21.84,83.01 -14.57,24.71 -34.49,44.04 -59.81,57.99 -25.33,13.95 -53.75,20.93 -85.28,20.93zm0 -30.02c25.16,0 47.91,-5.69 68.22,-17.06 20.32,-11.37 36.23,-27.14 47.76,-47.31 11.51,-20.16 17.28,-42.67 17.28,-67.54 0,-24.87 -5.77,-47.38 -17.28,-67.55 -11.53,-20.16 -27.44,-35.92 -47.76,-47.31 -20.31,-11.37 -43.06,-17.04 -68.22,-17.04 -25.17,0 -48,5.67 -68.46,17.04 -20.48,11.39 -36.54,27.15 -48.21,47.31 -11.69,20.17 -17.52,42.68 -17.52,67.55 0,24.87 5.83,47.38 17.52,67.54 11.67,20.17 27.73,35.94 48.21,47.31 20.46,11.37 43.29,17.06 68.46,17.06zm571.22 -291.11l129.63 0c33.66,0 63.38,6.76 89.16,20.25 25.76,13.49 45.78,32.29 60.03,56.4 14.24,24.1 21.37,51.63 21.37,82.55 0,30.93 -7.13,58.44 -21.37,82.55 -14.25,24.12 -34.27,42.9 -60.03,56.41 -25.78,13.49 -55.5,20.23 -89.16,20.23l-129.63 0 0 -318.39zm127.82 289.28c27.89,0 52.31,-5.53 73.23,-16.59 20.91,-11.08 37.15,-26.39 48.66,-45.95 11.53,-19.55 17.28,-42.07 17.28,-67.54 0,-25.47 -5.75,-47.99 -17.28,-67.55 -11.51,-19.55 -27.75,-34.87 -48.66,-45.93 -20.92,-11.07 -45.34,-16.61 -73.23,-16.61l-94.16 0 0 260.17 94.16 0zm682.66 0l0 29.11 -225.14 0 0 -318.39 218.32 0 0 29.11 -184.68 0 0 113.25 164.66 0 0 28.66 -164.66 0 0 118.26 191.5 0zm726.8 -55.95l-177.4 0 -38.19 85.06 -35.02 0 145.53 -318.39 33.21 0 145.55 318.39 -35.47 0 -38.21 -85.06zm-12.28 -27.28l-76.42 -171.03 -76.41 171.03 152.83 0zm614.45 -206.05l0 318.39 -27.75 0 -204.7 -258.34 0 258.34 -33.64 0 0 -318.39 27.75 0 205.13 258.36 0 -258.36 33.21 0zm513 233.33l-177.4 0 -38.19 85.06 -35.04 0 145.55 -318.39 33.2 0 145.56 318.39 -35.48 0 -38.2 -85.06zm-12.3 -27.28l-76.4 -171.03 -76.42 171.03 152.82 0zm-43.19 -288.37l43.19 0 -73.67 56.4 -31.83 0 62.31 -56.4zm391.57 82.32l33.64 0 0 289.28 178.3 0 0 29.11 -211.94 0 0 -318.39zm477.53 0l33.64 0 0 318.39 -33.64 0 0 -318.39zm434.76 321.13c-23.64,0 -46.31,-3.8 -67.99,-11.37 -21.68,-7.59 -38.44,-17.6 -50.25,-30.02l13.18 -25.93c11.51,11.52 26.83,20.85 45.93,27.97 19.1,7.13 38.82,10.69 59.13,10.69 28.51,0 49.9,-5.24 64.15,-15.69 14.24,-10.47 21.37,-24.04 21.37,-40.72 0,-12.73 -3.87,-22.89 -11.61,-30.47 -7.71,-7.57 -17.19,-13.42 -28.42,-17.51 -11.22,-4.09 -26.84,-8.56 -46.84,-13.41 -23.97,-6.07 -43.06,-11.9 -57.32,-17.52 -14.26,-5.6 -26.44,-14.18 -36.62,-25.7 -10.16,-11.52 -15.22,-27.13 -15.22,-46.85 0,-16.07 4.25,-30.7 12.72,-43.89 8.49,-13.18 21.53,-23.73 39.12,-31.6 17.6,-7.89 39.42,-11.83 65.5,-11.83 18.19,0 36.01,2.5 53.45,7.49 17.44,5.01 32.51,11.91 45.25,20.71l-11.36 26.83c-13.36,-8.79 -27.59,-15.38 -42.76,-19.78 -15.17,-4.41 -30.02,-6.61 -44.58,-6.61 -27.89,0 -48.9,5.39 -63,16.15 -14.1,10.77 -21.14,24.64 -21.14,41.63 0,12.73 3.86,22.97 11.58,30.69 7.74,7.74 17.46,13.66 29.13,17.75 11.68,4.09 27.35,8.56 47.07,13.41 23.35,5.77 42.23,11.45 56.62,17.06 14.4,5.6 26.61,14.1 36.63,25.47 9.99,11.37 15,26.76 15,46.17 0,16.07 -4.31,30.7 -12.95,43.89 -8.64,13.2 -21.93,23.65 -39.8,31.39 -17.89,7.72 -39.89,11.6 -65.97,11.6zm626.72 -31.85l0 29.11 -225.14 0 0 -318.39 218.32 0 0 29.11 -184.66 0 0 113.25 164.65 0 0 28.66 -164.65 0 0 118.26 191.48 0zm376.58 31.85c-23.65,0 -46.32,-3.8 -68.01,-11.37 -21.67,-7.59 -38.42,-17.6 -50.26,-30.02l13.19 -25.93c11.53,11.52 26.84,20.85 45.94,27.97 19.11,7.13 38.82,10.69 59.14,10.69 28.5,0 49.88,-5.24 64.13,-15.69 14.25,-10.47 21.38,-24.04 21.38,-40.72 0,-12.73 -3.87,-22.89 -11.6,-30.47 -7.74,-7.57 -17.2,-13.42 -28.43,-17.51 -11.23,-4.09 -26.84,-8.56 -46.85,-13.41 -23.96,-6.07 -43.06,-11.9 -57.31,-17.52 -14.25,-5.6 -26.46,-14.18 -36.62,-25.7 -10.16,-11.52 -15.23,-27.13 -15.23,-46.85 0,-16.07 4.24,-30.7 12.74,-43.89 8.47,-13.18 21.53,-23.73 39.11,-31.6 17.6,-7.89 39.41,-11.83 65.5,-11.83 18.18,0 36,2.5 53.43,7.49 17.46,5.01 32.52,11.91 45.28,20.71l-11.37 26.83c-13.36,-8.79 -27.61,-15.38 -42.76,-19.78 -15.17,-4.41 -30.03,-6.61 -44.58,-6.61 -27.91,0 -48.9,5.39 -63,16.15 -14.1,10.77 -21.16,24.64 -21.16,41.63 0,12.73 3.88,22.97 11.61,30.69 7.74,7.74 17.43,13.66 29.11,17.75 11.67,4.09 27.37,8.56 47.09,13.41 23.34,5.77 42.21,11.45 56.61,17.06 14.4,5.6 26.61,14.1 36.63,25.47 9.99,11.37 15,26.76 15,46.17 0,16.07 -4.33,30.7 -12.97,43.89 -8.62,13.2 -21.91,23.65 -39.8,31.39 -17.87,7.72 -39.87,11.6 -65.94,11.6zm778.17 0c-31.53,0 -59.95,-6.98 -85.28,-20.93 -25.3,-13.95 -45.18,-33.28 -59.57,-57.99 -14.4,-24.72 -21.6,-52.39 -21.6,-83.01 0,-30.63 7.2,-58.3 21.6,-83.01 14.39,-24.72 34.34,-44.04 59.8,-57.99 25.47,-13.95 53.99,-20.92 85.51,-20.92 23.65,0 45.49,3.94 65.5,11.83 20.02,7.87 37,19.39 50.94,34.56l-21.37 21.38c-24.86,-25.18 -56.24,-37.75 -94.16,-37.75 -25.16,0 -48.04,5.75 -68.68,17.27 -20.62,11.52 -36.77,27.3 -48.44,47.31 -11.68,20.02 -17.5,42.45 -17.5,67.32 0,24.87 5.82,47.3 17.5,67.31 11.67,20.02 27.82,35.79 48.44,47.31 20.64,11.52 43.52,17.29 68.68,17.29 38.22,0 69.6,-12.74 94.16,-38.21l21.37 21.38c-13.94,15.15 -30.99,26.75 -51.17,34.79 -20.15,8.04 -42.06,12.06 -65.73,12.06zm398.4 -321.13l33.67 0 0 289.28 178.3 0 0 29.11 -211.97 0 0 -318.39zm477.54 0l33.66 0 0 318.39 -33.66 0 0 -318.39zm49.58 -82.32l43.21 0 -73.69 56.4 -31.83 0 62.31 -56.4zm563.5 82.32l0 318.39 -27.75 0 -204.69 -258.34 0 258.34 -33.65 0 0 -318.39 27.75 0 205.14 258.36 0 -258.36 33.2 0zm313.33 0l33.64 0 0 318.39 -33.64 0 0 -318.39zm485.26 321.13c-31.54,0 -59.97,-6.98 -85.28,-20.93 -25.33,-13.95 -45.18,-33.28 -59.58,-57.99 -14.41,-24.72 -21.62,-52.39 -21.62,-83.01 0,-30.63 7.21,-58.3 21.62,-83.01 14.4,-24.72 34.33,-44.04 59.81,-57.99 25.47,-13.95 53.97,-20.92 85.5,-20.92 23.66,0 45.5,3.94 65.51,11.83 20.02,7.87 36.98,19.39 50.94,34.56l-21.38 21.38c-24.87,-25.18 -56.25,-37.75 -94.15,-37.75 -25.17,0 -48.06,5.75 -68.69,17.27 -20.61,11.52 -36.76,27.3 -48.43,47.31 -11.68,20.02 -17.52,42.45 -17.52,67.32 0,24.87 5.84,47.3 17.52,67.31 11.67,20.02 27.82,35.79 48.43,47.31 20.63,11.52 43.52,17.29 68.69,17.29 38.2,0 69.58,-12.74 94.15,-38.21l21.38 21.38c-13.96,15.15 -31.01,26.75 -51.17,34.79 -20.17,8.04 -42.08,12.06 -65.73,12.06zm589.88 -87.8l-177.39 0 -38.2 85.06 -35.02 0 145.53 -318.39 33.22 0 145.54 318.39 -35.47 0 -38.21 -85.06zm-12.28 -27.28l-76.42 -171.03 -76.41 171.03 152.83 0zm436.13 115.08c-23.65,0 -46.31,-3.8 -68,-11.37 -21.66,-7.59 -38.42,-17.6 -50.25,-30.02l13.18 -25.93c11.53,11.52 26.85,20.85 45.95,27.97 19.1,7.13 38.82,10.69 59.12,10.69 28.52,0 49.89,-5.24 64.14,-15.69 14.26,-10.47 21.37,-24.04 21.37,-40.72 0,-12.73 -3.85,-22.89 -11.59,-30.47 -7.72,-7.57 -17.21,-13.42 -28.42,-17.51 -11.23,-4.09 -26.84,-8.56 -46.85,-13.41 -23.96,-6.07 -43.06,-11.9 -57.33,-17.52 -14.24,-5.6 -26.43,-14.18 -36.6,-25.7 -10.16,-11.52 -15.23,-27.13 -15.23,-46.85 0,-16.07 4.23,-30.7 12.72,-43.89 8.5,-13.18 21.53,-23.73 39.11,-31.6 17.6,-7.89 39.42,-11.83 65.5,-11.83 18.19,0 36.03,2.5 53.45,7.49 17.44,5.01 32.53,11.91 45.26,20.71l-11.37 26.83c-13.34,-8.79 -27.59,-15.38 -42.76,-19.78 -15.15,-4.41 -30.02,-6.61 -44.58,-6.61 -27.89,0 -48.88,5.39 -62.98,16.15 -14.1,10.77 -21.15,24.64 -21.15,41.63 0,12.73 3.87,22.97 11.59,30.69 7.74,7.74 17.44,13.66 29.11,17.75 11.67,4.09 27.37,8.56 47.09,13.41 23.35,5.77 42.22,11.45 56.62,17.06 14.4,5.6 26.61,14.1 36.61,25.47 10.01,11.37 15,26.76 15,46.17 0,16.07 -4.31,30.7 -12.95,43.89 -8.64,13.2 -21.91,23.65 -39.8,31.39 -17.89,7.72 -39.87,11.6 -65.96,11.6z"/>
  <path class="fil3" d="M8582.48 12891.43l7.81 -1137.72 -276.35 0 -4.81 907.97c-0.02,78.49 -53.76,87.55 -114.58,38.28 -220.38,-178.5 -436.87,-395.03 -654.04,-605.46l-7.34 321.67 -1.64 -1.53 648.32 605.09c232.47,188.7 401.46,100.19 402.63,-128.3zm-1165.23 -585.12l-0.49 1.22 95.81 89.42c-32.31,-30.35 -63.83,-60.78 -95.32,-90.64zm-540.21 306.71l-2.79 519.2 276.36 0 1.32 -242.12 -275.81 0 2.42 -278.04 -1.5 0.96z"/>
  <path class="fil1" d="M6883.98 11985.97l-7.85 904.12 277.92 0 4.86 -673.06c0,-78.94 54.05,-88.03 115.23,-38.49 89.34,72.36 170.64,155.73 259.03,237.63l7.4 -324.37 -251.64 -234.86c-233.81,-189.79 -403.77,-100.77 -404.95,129.03zm12548.05 327.01l0 -325.29 1401.79 0c83.71,0 149.43,71.39 149.43,162.51 0,86.76 -78.05,162.78 -167.15,162.78l-1384.07 0zm1668.8 110.91c70.34,-71.87 114.75,-168.42 114.75,-273.69 0,-221.31 -167.66,-394.86 -381.76,-394.86l-1517.84 0c-64.46,0 -116.3,51.86 -116.3,116.06l0 1231.82 232.35 0 0 -557.92 1384.07 0 17.72 0c83.71,0 149.43,71.41 149.43,162.81l0 411.23 10.44 0 221.89 0 115.47 0 893.99 -1054.6 701.33 827.43 203.58 226.98 329.72 0.13 -1121.17 -1318.36c-25.65,-30.37 -68.2,-48.72 -113.46,-48.72 -45.3,0 -87.77,18.35 -113.77,48.72l-895.69 1056.65 0 -149.46c0,-112.99 -43.91,-213.12 -114.75,-284.22zm-2808.14 -668.55l0 235.7 -1196.15 0c-38.52,0 -70.84,32.54 -70.84,70.85l0 107.59 0 92.6 801.91 0 0 235.68 -801.91 0 0 27.51 0 290.84c0,38.31 32.32,70.86 70.84,70.86l1444.81 0 0 235.7 -1444.81 0c-169,0 -306.55,-137.52 -306.55,-306.56l0 -290.84 0 -355.79 0 -107.59c0,-169.04 137.55,-306.55 306.55,-306.55l1196.15 0zm-3444.29 557.64l0 -325.29 1401.8 0c83.7,0 149.41,71.38 149.41,162.51 0,86.76 -78.03,162.78 -167.15,162.78l-1384.06 0zm1668.81 110.91c70.33,-71.88 114.75,-168.42 114.75,-273.69 0,-221.31 -167.65,-394.86 -381.76,-394.86l-1517.85 0c-64.44,0 -116.31,51.87 -116.31,116.06l0 1231.82 232.36 0 0 -557.91 1384.06 0 17.74 0c83.7,0 149.41,71.4 149.41,162.8l0 395.11 232.35 0 0 -395.11c0,-112.99 -43.92,-213.12 -114.75,-284.22zm-3843.15 -110.91l0 -325.29 1401.79 0c83.71,0 149.43,71.38 149.43,162.51 0,86.76 -78.06,162.78 -167.15,162.78l-1384.07 0zm1668.81 110.91c70.32,-71.88 114.76,-168.42 114.76,-273.69 0,-221.31 -167.67,-394.86 -381.78,-394.86l-1517.83 0c-64.46,0 -116.3,51.87 -116.3,116.06l0 1231.82 232.34 0 0 -557.91 1384.07 0 17.72 0c83.71,0 149.43,71.4 149.43,162.8l0 395.11 232.35 0 0 -395.11c0,-112.99 -43.93,-213.12 -114.76,-284.22zm-2281.72 -668.55l0 235.7 -1196.15 0c-38.52,0 -70.84,32.54 -70.84,70.85l0 107.59 0 92.6 801.93 0 0 235.68 -801.93 0 0 27.51 0 290.84c0,38.31 32.32,70.86 70.84,70.86l1444.83 0 0 235.7 -1444.83 0c-168.99,0 -306.52,-137.52 -306.52,-306.56l0 -290.84 0 -355.79 0 -107.59c0,-169.04 137.53,-306.55 306.52,-306.55l1196.15 0zm-1872.63 464.75l0 235.7 -1200.53 0 0 666.88 -235.71 0 0 -1060.78c0,-169.04 137.54,-306.55 306.54,-306.55l1437.15 0 0 235.7 -1437.15 0c-38.51,0 -70.83,32.54 -70.83,70.85l0 158.2 1200.53 0zm8574.28 902.58l272.45 0 0 -1358.75 -272.45 0 0 1358.75z"/>
 </g>
</svg>
